<svg width="87" height="73" viewBox="0 0 87 73" fill="none" xmlns="http://www.w3.org/2000/svg">
<path d="M39.9218 0.98877V21.2342V41.4797H43.8151C44.5318 41.4797 45.1129 40.8987 45.1129 40.1819V2.28656C45.1129 1.56983 44.5318 0.98877 43.8151 0.98877H39.9218Z" fill="#FF7C59"/>
<path d="M33.4327 0.98877L15.9636 21.2342L33.4327 41.4797H39.9216V0.98877H33.4327Z" fill="#FF985F"/>
<path d="M20.9303 0.98877L17.037 11.3711L13.1436 0.98877H1.93939C1.22266 0.98877 0.641602 1.56983 0.641602 2.28656V40.1819C0.641602 40.8987 1.22266 41.4797 1.93939 41.4797H33.4323V0.98877H20.9303Z" fill="#FFB464"/>
<path d="M13.1438 0.98877H20.9305V16.5622H13.1438V0.98877Z" fill="#FFF7E6"/>
<path d="M76.2596 46.6709L81.4508 62.2443H85.3442C86.0609 62.2443 86.6419 61.6633 86.6419 60.9466V54.4576L76.2596 46.6709Z" fill="#87A1C1"/>
<path d="M65.8771 49.2665H81.4505V62.2443H65.8771V49.2665Z" fill="#9ABBD0"/>
<path d="M81.5894 40.8827L76.2596 38.8842L81.4508 54.4576H86.6419V48.1737C86.6419 44.9279 84.6285 42.0225 81.5894 40.8827Z" fill="#CC3245"/>
<path d="M0.641724 54.4576V60.9466C0.641724 61.6633 1.22279 62.2443 1.93951 62.2443H21.4063V49.2665L0.641724 54.4576Z" fill="#9ABBD0"/>
<path d="M0.641724 54.4576H21.4063V62.2443H50.3037L55.4948 46.6709H1.93951C1.22279 46.6709 0.641724 47.252 0.641724 47.9687V54.4576Z" fill="#ACD5DF"/>
<path d="M59.1299 15.5239H51.6014C50.8847 15.5239 50.3036 16.105 50.3036 16.8217V20.7151L52.8992 28.5018L68.1205 20.7151C66.2809 17.527 62.8651 15.5239 59.1299 15.5239Z" fill="#CC3245"/>
<path d="M78.9241 40.8827L76.2593 38.8841L68.6173 21.6896C68.4679 21.3538 68.3015 21.029 68.1205 20.7151H50.3036V62.2443H65.877V54.4575H81.4505V48.1737C81.4505 44.9278 80.4437 42.0225 78.9241 40.8827Z" fill="#FF3E3A"/>
<path d="M21.4065 72.6266C27.1404 72.6266 31.7888 67.9783 31.7888 62.2444C31.7888 56.5104 27.1404 51.8621 21.4065 51.8621C15.6725 51.8621 11.0242 56.5104 11.0242 62.2444C11.0242 67.9783 15.6725 72.6266 21.4065 72.6266Z" fill="#4A527B"/>
<path d="M21.4064 57.0531L18.8108 62.2442L21.4064 67.4354C24.2734 67.4354 26.5975 65.1113 26.5975 62.2442C26.5975 59.3772 24.2734 57.0531 21.4064 57.0531Z" fill="#C5F3FF"/>
<path d="M16.2152 62.2442C16.2152 65.1113 18.5393 67.4354 21.4064 67.4354V57.0531C18.5393 57.0531 16.2152 59.3772 16.2152 62.2442Z" fill="white"/>
<path d="M65.8772 72.6266C71.6111 72.6266 76.2595 67.9783 76.2595 62.2444C76.2595 56.5104 71.6111 51.8621 65.8772 51.8621C60.1432 51.8621 55.4949 56.5104 55.4949 62.2444C55.4949 67.9783 60.1432 72.6266 65.8772 72.6266Z" fill="#4A527B"/>
<path d="M65.8771 57.0531L63.2815 62.2442L65.8771 67.4354C68.7441 67.4354 71.0682 65.1113 71.0682 62.2442C71.0682 59.3772 68.744 57.0531 65.8771 57.0531Z" fill="#C5F3FF"/>
<path d="M60.6862 62.2442C60.6862 65.1113 63.0102 67.4354 65.8773 67.4354V57.0531C63.0102 57.0531 60.6862 59.3772 60.6862 62.2442Z" fill="white"/>
<path d="M64.8109 25.9062H59.1302V32.3952L64.8981 38.8841H70.579L64.8109 25.9062Z" fill="#CFF5FF"/>
<path d="M59.1301 25.9062H55.4949V38.8841H64.8979L59.1301 25.9062Z" fill="white"/>
</svg>
