<svg width="61" height="87" viewBox="0 0 61 87" fill="none" xmlns="http://www.w3.org/2000/svg">
<path d="M56.672 86.9793H4.13537C4.01312 86.9793 3.91406 86.8803 3.91406 86.758V70.3436C3.91406 70.2214 4.01312 70.1223 4.13537 70.1223H56.672C56.7943 70.1223 56.8933 70.2214 56.8933 70.3436V86.758C56.8935 86.8803 56.7943 86.9793 56.672 86.9793Z" fill="#00C27A"/>
<path d="M56.672 70.1222H49.9159V76.886C49.9159 80.5336 46.959 83.4904 43.3114 83.4904H3.91406V86.7579C3.91406 86.8801 4.01312 86.9792 4.13554 86.9792H56.6722C56.7945 86.9792 56.8937 86.8801 56.8937 86.7579V70.3435C56.8935 70.2214 56.7943 70.1222 56.672 70.1222Z" fill="#08B865"/>
<path d="M53.881 40.6223C53.881 53.5896 32.028 79.7549 30.4014 79.7549C28.7749 79.7549 6.92188 53.5896 6.92188 40.6223C6.92188 27.6551 17.4342 17.1429 30.4014 17.1429C43.3687 17.1429 53.881 27.6551 53.881 40.6223Z" fill="#FD6930"/>
<path d="M37.1019 18.1136C42.8772 22.3911 46.6211 29.2553 46.6211 36.9939C46.6211 47.9733 30.9546 68.4144 25.1641 74.4235C27.8844 77.686 29.941 79.7548 30.3984 79.7548C32.0249 79.7548 53.8779 53.5896 53.8779 40.6223C53.8779 29.9842 46.8031 20.9986 37.1019 18.1136Z" fill="#FD5426"/>
<path d="M60.4545 21.7516L55.4051 0.544493C55.369 0.392779 55.2336 0.285767 55.0776 0.285767H5.72628C5.57033 0.285767 5.43487 0.392779 5.39881 0.544493L0.349413 21.7516C0.333158 21.8202 0.320797 21.8894 0.3125 21.9592H60.4912C60.4831 21.8894 60.4707 21.82 60.4545 21.7516Z" fill="#FFC344"/>
<path d="M30.4002 54.7101C38.1806 54.7101 44.4879 48.4028 44.4879 40.6224C44.4879 32.8419 38.1806 26.5347 30.4002 26.5347C22.6198 26.5347 16.3125 32.8419 16.3125 40.6224C16.3125 48.4028 22.6198 54.7101 30.4002 54.7101Z" fill="#FDF6EC"/>
<path d="M18.3564 34C15.0314 34 12.3359 31.3045 12.3359 27.9795V21.9592H24.3767V27.9797C24.3767 31.3045 21.6814 34 18.3564 34Z" fill="#FDDEB0"/>
<path d="M30.3955 34C27.0705 34 24.375 31.3045 24.375 27.9795V21.9592H36.4158V27.9797C36.4159 31.3045 33.7205 34 30.3955 34Z" fill="#FEB237"/>
<path d="M42.4423 34C39.1173 34 36.4219 31.3045 36.4219 27.9795V21.9592H48.4626V27.9797C48.4628 31.3045 45.7673 34 42.4423 34Z" fill="#FDDEB0"/>
<path d="M35.3906 0.285767L36.4228 21.9592H48.4636L45.3673 0.285767H35.3906Z" fill="#FAE2C0"/>
<path d="M15.4322 0.285767L12.3359 21.9592H24.3767L25.4089 0.285767H15.4322Z" fill="#FAE2C0"/>
<path d="M0.296875 22.1726V27.9796C0.296875 31.3046 2.99234 34 6.31734 34C9.64234 34 12.3378 31.3046 12.3378 27.9796V21.9591H0.309405C0.301108 22.0299 0.296875 22.1012 0.296875 22.1726Z" fill="#FEB237"/>
<path d="M48.4609 21.9591V27.9796C48.4609 31.3046 51.1564 34 54.4814 34C57.8064 34 60.5019 31.3046 60.5019 27.9796V22.1726C60.5019 22.1012 60.4976 22.0299 60.4893 21.9591H48.4609Z" fill="#FEB237"/>
</svg>
