<svg width="87" height="88" viewBox="0 0 87 88" fill="none" xmlns="http://www.w3.org/2000/svg">
<path d="M66.3772 44.2528V54.4117C66.3772 55.8338 65.2599 56.9515 63.8375 56.9515C62.415 56.9515 61.2977 55.8338 61.2977 54.4117V44.2528C61.2977 42.8303 62.415 41.713 63.8375 41.713C65.2599 41.713 66.3772 42.8303 66.3772 44.2528Z" fill="#CEE2E6"/>
<path d="M63.8376 56.9515V41.713C65.2601 41.713 66.3774 42.8303 66.3774 44.2528V54.4117C66.3774 55.8338 65.2601 56.9515 63.8376 56.9515Z" fill="#B8CED9"/>
<path d="M63.8377 51.8719C54.0343 51.8719 46.0594 59.8468 46.0594 69.6502C46.0594 79.4536 54.0343 87.5977 63.8377 87.5977C73.6411 87.5977 81.6159 79.4536 81.6159 69.6502C81.6159 59.8468 73.6411 51.8719 63.8377 51.8719Z" fill="#97DE3D"/>
<path d="M81.6159 69.6502C81.6159 79.4536 73.6411 87.5977 63.8376 87.5977V51.8719C73.6411 51.8719 81.6159 59.8468 81.6159 69.6502Z" fill="#59C36A"/>
<path d="M48.5994 31.554H33.3609C31.9571 31.554 30.8212 30.418 30.8212 29.0142C30.8212 27.6104 31.9571 26.4745 33.3609 26.4745H48.5994C50.0032 26.4745 51.1391 27.6104 51.1391 29.0142C51.1391 30.418 50.0032 31.554 48.5994 31.554Z" fill="#CEE2E6"/>
<path d="M80.8537 61.2689L65.6152 76.5073C65.1582 77.0155 64.4979 77.2694 63.8376 77.2694C63.1772 77.2694 62.5169 77.0155 62.0599 76.5073L56.9804 71.4278C55.9645 70.4627 55.9645 68.8373 56.9804 67.8722C57.9455 66.8565 59.5706 66.8565 60.5359 67.8722L63.8377 71.1231L77.2986 57.7132C78.2637 56.6975 79.8888 56.6975 80.854 57.7132C81.8698 58.6783 81.8698 60.3038 80.8537 61.2689Z" fill="#EBF2F2"/>
<path d="M48.5994 18.8552H79.0763V44.2527H48.5994V18.8552Z" fill="#CEE2E6"/>
<path d="M63.8376 18.8552H79.0761V44.2527H63.8376V18.8552Z" fill="#B8CED9"/>
<path d="M79.0761 46.7925C77.6723 46.7925 76.5364 45.6566 76.5364 44.2528V18.8553C76.5364 17.4515 77.6723 16.3156 79.0761 16.3156C80.4799 16.3156 81.6159 17.4515 81.6159 18.8553V44.2528C81.6159 45.6566 80.4799 46.7925 79.0761 46.7925Z" fill="#CEE2E6"/>
<path d="M66.3772 18.8553V44.2528C66.3772 45.6749 65.2599 46.7925 63.8375 46.7925C62.415 46.7925 61.2977 45.6749 61.2977 44.2528V18.8553C61.2977 17.4329 62.415 16.3156 63.8375 16.3156C65.2599 16.3156 66.3772 17.4329 66.3772 18.8553Z" fill="#EBF2F2"/>
<path d="M48.5992 46.7925C47.1954 46.7925 46.0594 45.6566 46.0594 44.2528V18.8553C46.0594 17.4515 47.1954 16.3156 48.5992 16.3156C50.003 16.3156 51.1389 17.4515 51.1389 18.8553V44.2528C51.1389 45.6566 50.003 46.7925 48.5992 46.7925Z" fill="#EBF2F2"/>
<path d="M66.3774 18.8553V44.2528C66.3774 45.6749 65.2601 46.7925 63.8376 46.7925V16.3156C65.2601 16.3156 66.3774 17.4329 66.3774 18.8553Z" fill="#CEE2E6"/>
<path d="M86.6957 44.2528C86.6957 45.6748 85.5783 46.7925 84.1559 46.7925H43.52C42.0975 46.7925 40.9802 45.6748 40.9802 44.2528C40.9802 42.8303 42.0975 41.713 43.52 41.713H84.1559C85.5783 41.713 86.6957 42.8303 86.6957 44.2528Z" fill="#EBF2F2"/>
<path d="M86.6954 44.2528C86.6954 45.6748 85.578 46.7925 84.1556 46.7925H63.8376V41.713H84.1556C85.578 41.713 86.6954 42.8303 86.6954 44.2528Z" fill="#CEE2E6"/>
<path d="M85.2732 11.49L64.9553 1.16169C64.6 1.00914 64.2445 0.907715 63.8379 0.907715C63.4314 0.907715 63.0758 1.00914 62.7206 1.16169L42.4027 11.3207C41.539 11.7778 40.9802 12.8107 40.9802 13.7758V18.8553C40.9802 20.2773 42.0975 21.395 43.52 21.395H84.1559C85.5783 21.395 86.6957 20.2773 86.6957 18.8553V13.7758C86.6957 12.8107 86.1369 11.9471 85.2732 11.49Z" fill="#EBF2F2"/>
<path d="M86.6954 13.7758V18.8553C86.6954 20.2773 85.578 21.395 84.1556 21.395H63.8376V0.907715C64.2442 0.907715 64.5997 1.00914 64.955 1.16169L85.2729 11.49C86.1366 11.9471 86.6954 12.8107 86.6954 13.7758Z" fill="#CEE2E6"/>
<path d="M17.9532 11.236C8.14973 11.236 0.00561523 19.2108 0.00561523 29.0142C0.00561523 38.8176 8.14973 46.7924 17.9532 46.7924C27.7566 46.7924 35.9007 38.8176 35.9007 29.0142C35.9007 19.2108 27.7566 11.236 17.9532 11.236ZM17.9532 36.1761L10.7912 29.0142L17.9532 21.8519L25.1151 29.0142L17.9532 36.1761Z" fill="#FED843"/>
<path d="M35.9005 29.0142C35.9005 38.8176 27.7564 46.7924 17.953 46.7924V36.1761L25.1149 29.0142L17.953 21.8519V11.236C27.7564 11.236 35.9005 19.2108 35.9005 29.0142Z" fill="#FABE2C"/>
<path d="M26.9438 27.2362L19.7307 20.0235C19.2737 19.5665 18.6134 19.3124 17.9531 19.3124C17.2927 19.3124 16.6324 19.5665 16.1754 20.0235L8.96235 27.2362C7.99725 28.2013 7.99725 29.8268 8.96235 30.7919L16.1754 38.0046C16.6324 38.4619 17.2927 38.7157 17.9531 38.7157C18.6134 38.7157 19.2737 38.4617 19.7307 38.0046L26.9438 30.7919C27.9089 29.8268 27.9089 28.2013 26.9438 27.2362ZM17.9529 32.6205L14.3463 29.0142L17.9529 25.4076L21.5595 29.0142L17.9529 32.6205Z" fill="#FABE2C"/>
<path d="M26.9439 30.7919L19.7308 38.0046C19.2738 38.4619 18.6135 38.7157 17.9532 38.7157V32.6204L21.5596 29.0143L17.953 25.4076V19.3123C18.6133 19.3123 19.2737 19.5664 19.7307 20.0234L26.9437 27.2361C27.909 28.2014 27.909 29.8268 26.9439 30.7919Z" fill="#FF9100"/>
<path d="M80.8538 61.2689L65.6153 76.5073C65.1583 77.0155 64.498 77.2694 63.8376 77.2694V71.1231L77.2985 57.7132C78.2636 56.6975 79.8887 56.6975 80.8539 57.7132C81.8698 58.6783 81.8698 60.3038 80.8538 61.2689Z" fill="#CEE2E6"/>
</svg>
