<svg width="88" height="88" viewBox="0 0 88 88" fill="none" xmlns="http://www.w3.org/2000/svg">
<g clip-path="url(#clip0_793_10042)">
<path d="M0.890625 14.7737V61.4144C0.890625 65.5627 4.25314 68.9252 8.4014 68.9252H79.9515C84.0997 68.9252 87.4622 65.5627 87.4622 61.4144V14.7737C87.4622 10.6691 84.1355 7.34229 80.0308 7.34229H8.32203C4.21743 7.34229 0.890625 10.6691 0.890625 14.7737Z" fill="#C4E2F2"/>
<path d="M61.6351 78.9473L44.1737 82.9262L26.7109 78.9473L29.1032 68.9259L43.4323 63.6572L59.2428 68.9259L60.0167 72.17L61.6351 78.9473Z" fill="#2D303B"/>
<path d="M87.4622 60.5302V61.4138C87.4622 65.562 84.0984 68.9259 79.9502 68.9259H8.40073C4.25248 68.9259 0.890625 65.562 0.890625 61.4138V60.5302H87.4622Z" fill="#3C3F4D"/>
<path d="M61.638 78.9472H34.9297L36.5481 72.1699H60.0196L61.638 78.9472Z" fill="#3C3F4D"/>
<path d="M71.9266 84.5268V86.9065H16.4219V84.5268C16.4219 81.4453 18.92 78.9473 22.0014 78.9473H66.3471C69.4285 78.9473 71.9266 81.4453 71.9266 84.5268Z" fill="#2D303B"/>
<path d="M71.927 84.5268V86.9065H25.9609V84.5268C25.9609 81.4453 28.459 78.9473 31.5424 78.9473H66.3475C69.429 78.9473 71.927 81.4453 71.927 84.5268Z" fill="#3C3F4D"/>
<path d="M16.6063 17.1713H51.9676L56.473 60.5302H12.1016L16.6063 17.1713Z" fill="#FF491F"/>
<path d="M33.9904 31.1901H58.5711L61.7021 60.5301H30.8594L33.9904 31.1901Z" fill="#ED3618"/>
<path d="M37.3504 31.1901H61.9304L65.0621 60.5301H34.2188L37.3504 31.1901Z" fill="#FFE14D"/>
<path d="M43.8272 22.7368C43.095 22.7368 42.5024 22.1435 42.5024 21.4114V12.6671C42.5024 8.13723 38.8171 4.45196 34.2872 4.45196C29.7574 4.45196 26.0721 8.13723 26.0721 12.6671V21.4114C26.0721 22.1429 25.4788 22.7361 24.7473 22.7361C24.0151 22.7361 23.4219 22.1429 23.4219 21.4114V12.6671C23.4219 6.67556 28.2963 1.80176 34.2872 1.80176C40.2781 1.80176 45.1526 6.67622 45.1526 12.6671V21.4114C45.1526 22.1435 44.5593 22.7368 43.8272 22.7368Z" fill="#3C3F4D"/>
<path d="M49.6399 49.2607C45.7674 49.2607 42.6172 46.1104 42.6172 42.238V36.5408C42.6172 35.8086 43.2105 35.2153 43.9426 35.2153C44.6741 35.2153 45.2674 35.8086 45.2674 36.5408V42.238C45.2674 44.6494 47.2291 46.6105 49.6399 46.6105C52.0506 46.6105 54.0123 44.6494 54.0123 42.238V36.5408C54.0123 35.8086 54.6056 35.2153 55.3377 35.2153C56.0692 35.2153 56.6625 35.8086 56.6625 36.5408V42.238C56.6625 46.1104 53.5123 49.2607 49.6399 49.2607Z" fill="white"/>
<path d="M81.2739 13.1698C81.2739 20.3241 75.4742 26.1232 68.3206 26.1232C61.1663 26.1232 55.3672 20.3241 55.3672 13.1698C55.3672 6.01618 61.1663 0.216431 68.3206 0.216431C75.4742 0.216431 81.2739 6.01618 81.2739 13.1698Z" fill="#32CC77"/>
<path d="M66.9682 21.0239C66.488 21.0239 66.0442 20.7633 65.8101 20.342L62.2763 13.9814C61.9211 13.3418 62.1513 12.5349 62.7915 12.1797C63.4317 11.8246 64.238 12.0547 64.5931 12.6949L66.8901 16.8286L71.9604 6.39849C72.2798 5.74041 73.0722 5.46593 73.7316 5.78604C74.3897 6.10616 74.6635 6.89917 74.3434 7.55725L68.16 20.2778C67.9437 20.7223 67.4986 21.0093 67.0046 21.0232C66.9927 21.0232 66.9808 21.0239 66.9682 21.0239Z" fill="white"/>
<path d="M82.6156 36.5724H69.8951C69.1636 36.5724 68.5703 35.9792 68.5703 35.2477C68.5703 34.5155 69.1636 33.9222 69.8951 33.9222H82.6156C83.3478 33.9222 83.9404 34.5155 83.9404 35.2477C83.9404 35.9792 83.3471 36.5724 82.6156 36.5724Z" fill="#3C3F4D"/>
<path d="M82.6139 42.7564H72.5442C71.812 42.7564 71.2188 42.1631 71.2188 41.4316C71.2188 40.6995 71.812 40.1062 72.5442 40.1062H82.6139C83.346 40.1062 83.9386 40.6995 83.9386 41.4316C83.9386 42.1631 83.3454 42.7564 82.6139 42.7564Z" fill="#3C3F4D"/>
</g>
<defs>
<clipPath id="clip0_793_10042">
<rect width="86.69" height="86.69" fill="white" transform="translate(0.71875 0.385742)"/>
</clipPath>
</defs>
</svg>
